<svg width="40" height="48" viewBox="0 0 40 48" fill="none" xmlns="http://www.w3.org/2000/svg">
<foreignObject x="-12" y="-12" width="63.88" height="72"><div xmlns="http://www.w3.org/1999/xhtml" style="backdrop-filter:blur(6px);clip-path:url(#bgblur_0_1_493_clip_path);height:100%;width:100%"></div></foreignObject><g data-figma-bg-blur-radius="12">
<rect width="39.88" height="48" rx="19.94" fill="white" fill-opacity="0.1"/>
<path d="M16.4899 34C16.0233 34 15.6149 33.8583 15.2649 33.575C14.9149 33.2917 14.6816 32.925 14.5649 32.475L13.4399 28H26.4399L25.3149 32.475C25.1983 32.925 24.9649 33.2917 24.6149 33.575C24.2649 33.8583 23.8566 34 23.3899 34H16.4899ZM19.9399 20C19.9399 18.3333 20.5233 16.9167 21.6899 15.75C22.8566 14.5833 24.2733 14 25.9399 14C25.9399 15.5 25.4649 16.8 24.5149 17.9C23.5649 19 22.3733 19.6667 20.9399 19.9V22H28.9399V25C28.9399 25.55 28.7441 26.0208 28.3524 26.4125C27.9608 26.8042 27.4899 27 26.9399 27H12.9399C12.3899 27 11.9191 26.8042 11.5274 26.4125C11.1358 26.0208 10.9399 25.55 10.9399 25V22H18.9399V19.9C17.5066 19.6667 16.3149 19 15.3649 17.9C14.4149 16.8 13.9399 15.5 13.9399 14C15.6066 14 17.0233 14.5833 18.1899 15.75C19.3566 16.9167 19.9399 18.3333 19.9399 20Z" fill="white"/>
</g>
<defs>
<clipPath id="bgblur_0_1_493_clip_path" transform="translate(12 12)"><rect width="39.88" height="48" rx="19.94"/>
</clipPath></defs>
</svg>
