<svg width="30" height="29" viewBox="0 0 30 29" fill="none" xmlns="http://www.w3.org/2000/svg">
<path d="M3.75 12C3.1 12 2.5625 11.7875 2.1375 11.3625C1.7125 10.9375 1.5 10.4 1.5 9.75C1.5 9.1 1.7125 8.5625 2.1375 8.1375C2.5625 7.7125 3.1 7.5 3.75 7.5C4.4 7.5 4.9375 7.7125 5.3625 8.1375C5.7875 8.5625 6 9.1 6 9.75C6 10.4 5.7875 10.9375 5.3625 11.3625C4.9375 11.7875 4.4 12 3.75 12ZM1.5 28.5V21H0V15C0 14.575 0.14375 14.2188 0.43125 13.9312C0.71875 13.6437 1.075 13.5 1.5 13.5H6C6.425 13.5 6.78125 13.6437 7.06875 13.9312C7.35625 14.2188 7.5 14.575 7.5 15V21H6V25.5H18V18H15.375C13.6 18 12.0938 17.3812 10.8562 16.1437C9.61875 14.9062 9 13.4 9 11.625C9 10.3 9.35625 9.11875 10.0688 8.08125C10.7812 7.04375 11.7 6.275 12.825 5.775C13.1 4.15 13.8562 2.78125 15.0938 1.66875C16.3312 0.55625 17.8 0 19.5 0C21.2 0 22.6688 0.55625 23.9062 1.66875C25.1437 2.78125 25.9 4.15 26.175 5.775C27.3 6.275 28.2188 7.04375 28.9312 8.08125C29.6437 9.11875 30 10.3 30 11.625C30 13.4 29.3812 14.9062 28.1437 16.1437C26.9062 17.3812 25.4 18 23.625 18H21V25.5H28.5V28.5H1.5ZM15.375 15H23.625C24.575 15 25.375 14.675 26.025 14.025C26.675 13.375 27 12.575 27 11.625C27 10.95 26.8187 10.3375 26.4562 9.7875C26.0938 9.2375 25.6 8.825 24.975 8.55L23.4 7.875L23.175 6.225C23.025 5.3 22.6063 4.53125 21.9188 3.91875C21.2313 3.30625 20.425 3 19.5 3C18.575 3 17.7687 3.30625 17.0812 3.91875C16.3937 4.53125 15.975 5.3 15.825 6.225L15.6 7.875L14.025 8.55C13.4 8.825 12.9062 9.2375 12.5437 9.7875C12.1812 10.3375 12 10.95 12 11.625C12 12.575 12.325 13.375 12.975 14.025C13.625 14.675 14.425 15 15.375 15Z" fill="#173124"/>
</svg>
